<svg width="35" height="35" viewBox="0 0 35 35" fill="none" xmlns="http://www.w3.org/2000/svg">
<path d="M34.022 21.8426C31.7779 30.844 22.6609 36.3221 13.6585 34.0774C4.65979 31.8333 -0.818281 22.7158 1.42679 13.7152C3.66989 4.71277 12.7868 -0.765715 21.7865 1.47837C30.7883 3.72246 36.2661 12.841 34.0217 21.8428L34.0219 21.8426H34.022Z" fill="#F3BA2F"/>
<path fill-rule="evenodd" clip-rule="evenodd" d="M17.7261 11.6396L13.3752 15.9904L13.3753 15.9903L10.8438 13.4587L17.7261 6.57642L24.6106 13.4608L22.0791 15.9923L17.7261 11.6396ZM9.05607 15.246L6.52441 17.778L9.05589 20.3092L11.5876 17.7775L9.05607 15.246ZM13.3752 19.566L17.7261 23.9166L22.079 19.5639L24.6119 22.0941L24.6106 22.0955L17.7261 28.9797L10.8438 22.0975L10.8403 22.0939L13.3752 19.566ZM26.3962 15.2473L23.8645 17.779L26.3961 20.3104L28.9277 17.7788L26.3962 15.2473Z" fill="white"/>
<path d="M20.2937 17.7769H20.2947L17.7261 15.208L15.8274 17.1061L15.6093 17.3243L15.1595 17.7743L15.1559 17.7778L15.1595 17.7814L17.7261 20.3484L20.2949 17.7795L20.2962 17.7781L20.2938 17.7769" fill="white"/>
</svg>
