<svg width="35" height="35" viewBox="0 0 35 35" fill="none" xmlns="http://www.w3.org/2000/svg">
<path d="M34.0258 21.7774C31.7817 30.7788 22.6647 36.2569 13.6623 34.0122C4.66358 31.7682 -0.814497 22.6506 1.43058 13.65C3.67368 4.64758 12.7906 -0.830901 21.7903 1.41319C30.7921 3.65727 36.2699 12.7758 34.0255 21.7776L34.0257 21.7774H34.0258Z" fill="#F7931A"/>
<path fill-rule="evenodd" clip-rule="evenodd" d="M25.137 15.3189C25.4715 13.0829 23.7691 11.8809 21.4412 11.0791L22.1964 8.05022L20.3526 7.59079L19.6175 10.54C19.1328 10.4191 18.635 10.3051 18.1402 10.1922L18.8807 7.22359L17.0381 6.76416L16.2825 9.79209C15.8814 9.70076 15.4874 9.6105 15.1052 9.51539L15.1073 9.50587L12.5647 8.87093L12.0742 10.8402C12.0742 10.8402 13.4421 11.1538 13.4133 11.1731C14.1599 11.3594 14.295 11.8537 14.2725 12.2454L13.4123 15.6961C13.4637 15.7091 13.5304 15.728 13.604 15.7576L13.5505 15.7442C13.505 15.7328 13.4577 15.721 13.4091 15.7094L12.2034 20.5432C12.1121 20.7701 11.8805 21.1105 11.3585 20.9812C11.377 21.008 10.0184 20.6468 10.0184 20.6468L9.10303 22.7573L11.5024 23.3555C11.7651 23.4214 12.0247 23.489 12.2816 23.556L12.2818 23.5561C12.4614 23.6029 12.6398 23.6494 12.817 23.6947L12.054 26.7583L13.8957 27.2178L14.6512 24.1866C15.1544 24.3232 15.6426 24.4492 16.1206 24.568L15.3676 27.5848L17.2114 28.0442L17.9743 24.9863C21.1184 25.5813 23.4825 25.3414 24.4775 22.4977C25.2794 20.2081 24.4376 18.8874 22.7836 18.0262C23.9883 17.7484 24.8957 16.956 25.1377 15.3192L25.1371 15.3188L25.137 15.3189ZM20.9245 21.2262C20.4017 23.3268 17.1136 22.4584 15.6092 22.061C15.4739 22.0253 15.353 21.9934 15.2499 21.9677L16.2623 17.9089C16.388 17.9403 16.5416 17.9748 16.7156 18.0138L16.7157 18.0138C18.2718 18.3631 21.4601 19.0786 20.9246 21.2262H20.9245ZM17.0278 16.13C18.282 16.4648 21.0181 17.195 21.4946 15.2858H21.4948C21.9814 13.3331 19.3224 12.7444 18.0237 12.4569C17.8776 12.4246 17.7487 12.396 17.6435 12.3698L16.7255 16.0509C16.8122 16.0725 16.9139 16.0996 17.0278 16.13Z" fill="white"/>
</svg>
