<svg width="34" height="35" viewBox="0 0 34 35" fill="none" xmlns="http://www.w3.org/2000/svg">
<circle cx="16.9572" cy="17.778" r="16.8024" fill="#13B5EC"/>
<path fill-rule="evenodd" clip-rule="evenodd" d="M18.3575 14.4189L22.1381 12.2025V16.6353L18.3575 14.4189ZM22.1381 23.9175L17.0974 26.8727L12.0566 23.9175V18.7459L17.0974 21.7011L22.1381 18.7459V23.9175ZM12.0566 12.2025L15.8372 14.4189L12.0566 16.6353V12.2025ZM17.7274 15.4742L21.508 17.6906L17.7274 19.907V15.4742ZM16.4672 19.907L12.6866 17.6906L16.4672 15.4742V19.907ZM21.5079 11.1468L17.0973 13.6798L12.6866 11.1468L17.0973 8.50822L21.5079 11.1468ZM10.7964 10.7247V24.5508L17.0973 28.1393L23.3982 24.5508V10.7247L17.0973 7.13623L10.7964 10.7247Z" fill="white"/>
</svg>
