<svg width="160" height="56" viewBox="0 0 160 56" fill="none" xmlns="http://www.w3.org/2000/svg">
<path d="M1.05444 1.43701L5.60364 3.88658C6.20201 4.20878 6.87099 4.37744 7.55059 4.37744V4.37744C8.9931 4.37744 10.3298 5.13429 11.072 6.37123L11.543 7.15624C12.0971 8.07977 12.9325 8.80155 13.9267 9.21578L16.5163 10.2948C17.1241 10.5481 17.6764 10.9179 18.1419 11.3835L19.741 12.9825C20.6863 13.9278 21.9684 14.4589 23.3053 14.4589H27.8787C28.7115 14.4589 29.4976 14.0744 30.0088 13.4171V13.4171C31.0892 12.028 33.1887 12.028 34.2691 13.4171L34.46 13.6625C34.8614 14.1787 35.0794 14.8139 35.0794 15.4678V17.2977C35.0794 19.853 37.552 21.6793 39.9943 20.9278V20.9278C40.3562 20.8164 40.7327 20.7598 41.1113 20.7598H43.2669C44.4879 20.7598 45.6673 21.203 46.5862 22.007L47.8547 23.1169C48.2957 23.5028 48.8008 23.8089 49.347 24.0213L55.2011 26.2979C55.7836 26.5245 56.4031 26.6407 57.0281 26.6407H71.5995C72.4429 26.6407 73.2729 26.8523 74.0133 27.2562L80.6395 30.8705C81.6042 31.3966 82.7143 31.5932 83.801 31.4302L97.2864 29.4074C98.353 29.2474 99.3403 28.7495 100.103 27.9868L102.913 25.1766C103.858 24.2313 105.141 23.7003 106.477 23.7003H110.328C110.846 23.7003 111.36 23.78 111.855 23.9361C115.109 24.9634 120.57 26.6407 121.192 26.6407C121.647 26.6407 123.542 28.1832 125.283 29.7007C126.458 30.7242 128.275 30.5083 129.139 29.2122V29.2122C130.026 27.8819 131.908 27.6955 133.039 28.8261L134.616 30.4036C135.434 31.2218 136.544 31.6814 137.701 31.6814H141.875C142.366 31.6814 142.854 31.6098 143.324 31.4688L147.957 30.0787C149.825 29.5184 151.848 30.0855 153.153 31.5348L158.577 37.5623" stroke="#DE547C" stroke-width="1.26018" stroke-linejoin="round"/>
<path d="M5.1836 3.88658L0.634399 1.43701V55.6249H158.157V37.5623L152.733 31.5348C151.428 30.0855 149.405 29.5184 147.537 30.0787L142.904 31.4688C142.434 31.6098 141.946 31.6814 141.455 31.6814H137.281C136.124 31.6814 135.014 31.2218 134.196 30.4036L132.619 28.8261C131.488 27.6955 129.606 27.8819 128.719 29.2122C127.855 30.5083 126.038 30.7242 124.863 29.7007C123.122 28.1832 121.227 26.6407 120.772 26.6407C120.15 26.6407 114.688 24.9634 111.435 23.9361C110.94 23.78 110.426 23.7002 109.908 23.7002H106.057C104.72 23.7002 103.438 24.2313 102.493 25.1766L99.6829 27.9868C98.9202 28.7495 97.933 29.2474 96.8663 29.4074L83.381 31.4302C82.2943 31.5932 81.1841 31.3966 80.2195 30.8705L73.5933 27.2562C72.8528 26.8523 72.0229 26.6407 71.1795 26.6407H56.6081C55.9831 26.6407 55.3635 26.5245 54.7811 26.2979L48.927 24.0213C48.3807 23.8089 47.8757 23.5028 47.4346 23.1169L46.1662 22.007C45.2473 21.203 44.0678 20.7598 42.8468 20.7598H40.6912C40.3126 20.7598 39.9362 20.8164 39.5743 20.9278C37.132 21.6793 34.6593 19.853 34.6593 17.2977V15.4678C34.6593 14.8139 34.4414 14.1787 34.04 13.6625L33.8491 13.4171C32.7687 12.028 30.6692 12.028 29.5888 13.4171C29.0775 14.0744 28.2914 14.4589 27.4587 14.4589H22.8853C21.5484 14.4589 20.2663 13.9278 19.3209 12.9825L17.7219 11.3835C17.2563 10.9179 16.7041 10.5481 16.0963 10.2948L13.5066 9.21578C12.5124 8.80155 11.6771 8.07977 11.123 7.15623L10.652 6.37123C9.90979 5.13429 8.57305 4.37744 7.13055 4.37744C6.45094 4.37744 5.78197 4.20878 5.1836 3.88658Z" fill="url(#paint0_linear_85_1099)"/>
<defs>
<linearGradient id="paint0_linear_85_1099" x1="79.3959" y1="1.43701" x2="79.3959" y2="51.4243" gradientUnits="userSpaceOnUse">
<stop stop-color="#DE547C" stop-opacity="0.6"/>
<stop offset="0.942708" stop-color="#DE547C" stop-opacity="0"/>
</linearGradient>
</defs>
</svg>
