<svg width="159" height="63" viewBox="0 0 159 63" fill="none" xmlns="http://www.w3.org/2000/svg">
<path d="M1.40332 47.8919L3.2374 45.6499C3.77578 44.9918 4.54362 44.5622 5.38615 44.4478L8.00864 44.0916C8.90998 43.9692 9.7232 43.4866 10.2625 42.7541L14.8239 36.5587C15.4572 35.6985 16.4618 35.1907 17.53 35.1907H20.2517C20.8559 35.1907 21.4489 35.0278 21.9683 34.7191L24.6561 33.122C25.1755 32.8133 25.7686 32.6504 26.3728 32.6504H26.8029C27.9563 32.6504 29.0292 33.242 29.6448 34.2174L30.2567 35.187C31.1502 36.6029 33.0087 37.0495 34.448 36.1943V36.1943C35.4786 35.5819 36.7705 35.6209 37.7622 36.2944L38.0854 36.5139C39.1766 37.2549 40.6004 37.2891 41.7259 36.6012L43.8379 35.3103C44.6916 34.7885 45.7612 34.7705 46.632 35.2633V35.2633C47.6963 35.8656 49.0302 35.6945 49.9079 34.8429L51.4021 33.3933C51.9004 32.9099 52.536 32.5927 53.2218 32.4852L57.7072 31.7823C58.6067 31.6413 59.5249 31.8714 60.2517 32.4198L60.9703 32.962C62.5535 34.1567 64.8216 33.7275 65.8588 32.0369L70.6806 24.1781C71.4332 22.9515 72.8833 22.3402 74.2868 22.6579L77.7316 23.4377C78.1413 23.5305 78.5301 23.6992 78.8776 23.9353L82.8733 26.6488C84.2628 27.5924 86.1357 27.3652 87.2592 26.1166L95.5185 16.9384C96.4446 15.9091 97.9072 15.5533 99.2027 16.0421L100.311 16.4601C101.29 16.8294 102.385 16.7217 103.273 16.1688L105.779 14.6088C107.208 13.7188 109.076 14.0244 110.147 15.3237L114.749 20.904C115.387 21.6781 116.338 22.1265 117.342 22.1265H119.038C120.304 22.1265 121.462 22.8373 122.035 23.9656L123.711 27.2664C124.903 29.6152 128.212 29.741 129.579 27.4896L143.313 4.8782C143.801 4.07559 144.602 3.51357 145.523 3.32833L158.506 0.71582" stroke="#74CEB9" stroke-width="1.26018" stroke-linejoin="round"/>
<path d="M3.2374 45.6499L2.16278 46.9635C1.67165 47.5639 1.40332 48.3157 1.40332 49.0913V62.0447H158.506V0.71582L145.523 3.32833C144.602 3.51357 143.801 4.07559 143.313 4.8782L129.579 27.4896C128.212 29.741 124.903 29.6152 123.711 27.2664L122.035 23.9656C121.462 22.8373 120.304 22.1265 119.038 22.1265H117.342C116.338 22.1265 115.387 21.6781 114.749 20.904L110.147 15.3237C109.076 14.0244 107.208 13.7188 105.779 14.6088L103.273 16.1688C102.385 16.7217 101.29 16.8294 100.311 16.4601L99.2027 16.0421C97.9072 15.5533 96.4446 15.9091 95.5185 16.9384L87.2592 26.1166C86.1357 27.3652 84.2628 27.5924 82.8733 26.6488L78.8776 23.9353C78.5301 23.6992 78.1413 23.5305 77.7316 23.4377L74.2868 22.6579C72.8833 22.3402 71.4332 22.9515 70.6806 24.1781L65.8588 32.0369C64.8216 33.7275 62.5535 34.1567 60.9703 32.962L60.2517 32.4198C59.5249 31.8714 58.6067 31.6413 57.7072 31.7823L53.2218 32.4852C52.536 32.5927 51.9004 32.9099 51.4021 33.3933L49.9079 34.8429C49.0302 35.6945 47.6963 35.8656 46.632 35.2633C45.7612 34.7705 44.6916 34.7885 43.8379 35.3103L41.7259 36.6012C40.6004 37.2891 39.1766 37.2549 38.0854 36.5139L37.7622 36.2944C36.7705 35.6209 35.4786 35.5819 34.448 36.1943C33.0087 37.0495 31.1502 36.6029 30.2567 35.187L29.6448 34.2174C29.0292 33.242 27.9563 32.6504 26.8029 32.6504H26.3728C25.7686 32.6504 25.1755 32.8133 24.6561 33.122L21.9683 34.7191C21.4489 35.0278 20.8559 35.1907 20.2517 35.1907H17.53C16.4618 35.1907 15.4572 35.6985 14.8239 36.5587L10.2625 42.7541C9.7232 43.4866 8.90999 43.9692 8.00864 44.0916L5.38616 44.4478C4.54362 44.5622 3.77578 44.9918 3.2374 45.6499Z" fill="url(#paint0_linear_85_1084)"/>
<defs>
<linearGradient id="paint0_linear_85_1084" x1="79.9548" y1="0.71582" x2="79.9548" y2="62.0447" gradientUnits="userSpaceOnUse">
<stop stop-color="#74CEB9" stop-opacity="0.5"/>
<stop offset="0.869792" stop-color="#74CEB9" stop-opacity="0"/>
</linearGradient>
</defs>
</svg>
