<svg width="34" height="35" viewBox="0 0 34 35" fill="none" xmlns="http://www.w3.org/2000/svg">
<circle cx="17.1884" cy="17.778" r="16.8024" fill="#EDF0F4"/>
<path d="M22.2299 14.4036C21.8716 14.1975 21.4109 14.1975 21.0015 14.4036L18.1353 16.1038L16.1903 17.1857L13.3753 18.8859C13.017 19.092 12.5564 19.092 12.1469 18.8859L9.94608 17.5463C9.58781 17.3403 9.33189 16.9281 9.33189 16.4644V13.8884C9.33189 13.4762 9.53662 13.064 9.94608 12.8064L12.1469 11.5184C12.5052 11.3123 12.9658 11.3123 13.3753 11.5184L15.5761 12.8579C15.9344 13.064 16.1903 13.4762 16.1903 13.9399V15.6401L18.1353 14.5066V12.7549C18.1353 12.3427 17.9305 11.9306 17.5211 11.673L13.4265 9.25149C13.0682 9.0454 12.6076 9.0454 12.1981 9.25149L8.00115 11.7245C7.59169 11.9306 7.38696 12.3427 7.38696 12.7549V17.5979C7.38696 18.01 7.59169 18.4222 8.00115 18.6798L12.1469 21.1013C12.5052 21.3074 12.9658 21.3074 13.3753 21.1013L16.1903 19.4526L18.1353 18.3192L20.9503 16.6705C21.3086 16.4644 21.7692 16.4644 22.1787 16.6705L24.3795 17.9585C24.7378 18.1646 24.9937 18.5768 24.9937 19.0404V21.6165C24.9937 22.0287 24.789 22.4408 24.3795 22.6984L22.2299 23.9864C21.8716 24.1925 21.4109 24.1925 21.0015 23.9864L18.8006 22.6984C18.4424 22.4923 18.1864 22.0802 18.1864 21.6165V19.9678L16.2415 21.1013V22.8015C16.2415 23.2136 16.4462 23.6258 16.8557 23.8834L21.0015 26.3049C21.3598 26.511 21.8204 26.511 22.2299 26.3049L26.3756 23.8834C26.7339 23.6773 26.9898 23.2652 26.9898 22.8015V17.907C26.9898 17.4948 26.7851 17.0827 26.3756 16.8251L22.2299 14.4036Z" fill="#8247E5"/>
</svg>
