<svg width="28" height="28" viewBox="0 0 28 28" fill="none" xmlns="http://www.w3.org/2000/svg">
<path d="M14 19.25C16.8995 19.25 19.25 16.8995 19.25 14C19.25 11.1005 16.8995 8.75 14 8.75C11.1005 8.75 8.75 11.1005 8.75 14C8.75 16.8995 11.1005 19.25 14 19.25Z" stroke="#7681AB" stroke-width="2" stroke-linecap="round" stroke-linejoin="round"/>
<path d="M20.0879 7.11886C20.3681 7.36696 20.633 7.63184 20.8811 7.91206L23.8695 8.33879C24.3541 9.18266 24.7278 10.0856 24.9812 11.0251L23.1705 13.4392C23.1705 13.4392 23.1933 14.1873 23.1706 14.5608L24.982 16.9757C24.7279 17.9151 24.3537 18.8177 23.8685 19.6613L20.8811 20.088C20.8811 20.088 20.3683 20.6331 20.0881 20.8811L19.6614 23.8695C18.8175 24.3541 17.9146 24.7278 16.975 24.9812L14.5611 23.1706C14.1875 23.1933 13.8129 23.1933 13.4393 23.1706L11.0245 24.982C10.0851 24.7279 9.18242 24.3537 8.33887 23.8685L7.91222 20.8813C7.63201 20.6332 7.36712 20.3683 7.11901 20.0881L4.13063 19.6614C3.64602 18.8175 3.27238 17.9146 3.01897 16.975L4.82962 14.5609C4.82962 14.5609 4.80684 13.8129 4.82955 13.4393L3.01819 11.0245C3.27222 10.0851 3.64647 9.18242 4.13166 8.33887L7.11886 7.91222C7.36696 7.63201 7.63184 7.36712 7.91206 7.11901L8.33879 4.13063C9.18266 3.64601 10.0856 3.27237 11.0251 3.01897L13.4391 4.82956C13.8127 4.80685 14.1873 4.80684 14.5608 4.82955L16.9757 3.01819C17.9151 3.27222 18.8177 3.64648 19.6613 4.13166L20.0879 7.11886Z" stroke="#7681AB" stroke-width="2" stroke-linecap="round" stroke-linejoin="round"/>
</svg>
