<svg width="30" height="30" viewBox="0 0 30 30" fill="none" xmlns="http://www.w3.org/2000/svg">
<path d="M6.5863 12.1875C6.58475 11.0756 6.80328 9.97445 7.22929 8.94743C7.6553 7.92042 8.28037 6.98787 9.06847 6.20356C9.85656 5.41925 10.7921 4.79867 11.8212 4.37761C12.8502 3.95655 13.9524 3.74332 15.0643 3.75022C19.7037 3.78471 23.4146 7.641 23.4146 12.2934V13.125C23.4146 17.3221 24.2928 19.7577 25.0662 21.0888C25.1495 21.2311 25.1938 21.3928 25.1947 21.5576C25.1956 21.7224 25.153 21.8846 25.0712 22.0277C24.9894 22.1708 24.8713 22.2898 24.7288 22.3728C24.5864 22.4557 24.4246 22.4996 24.2597 22.5H5.74028C5.57542 22.4996 5.41359 22.4557 5.27111 22.3727C5.12863 22.2898 5.01055 22.1708 4.92876 22.0276C4.84698 21.8845 4.8044 21.7223 4.80531 21.5574C4.80622 21.3926 4.85059 21.2309 4.93395 21.0886C5.70777 19.7574 6.5863 17.3219 6.5863 13.125L6.5863 12.1875Z" stroke="#EAEAED" stroke-width="2" stroke-linecap="round" stroke-linejoin="round"/>
<path d="M11.25 22.5V23.4375C11.25 24.4321 11.6451 25.3859 12.3483 26.0891C13.0516 26.7924 14.0054 27.1875 15 27.1875C15.9946 27.1875 16.9484 26.7924 17.6516 26.0891C18.3549 25.3859 18.75 24.4321 18.75 23.4375V22.5" stroke="#EAEAED" stroke-width="2" stroke-linecap="round" stroke-linejoin="round"/>
<circle cx="20.5" cy="5.5" r="4.5" fill="#FD4D77" stroke="#1F1E3E" stroke-width="2"/>
</svg>
