<svg width="28" height="28" viewBox="0 0 28 28" fill="none" xmlns="http://www.w3.org/2000/svg">
<path d="M4.375 7V21C4.375 21.4641 4.55937 21.9092 4.88756 22.2374C5.21575 22.5656 5.66087 22.75 6.125 22.75H23.625C23.8571 22.75 24.0796 22.6578 24.2437 22.4937C24.4078 22.3296 24.5 22.1071 24.5 21.875V9.625C24.5 9.39294 24.4078 9.17038 24.2437 9.00628C24.0796 8.84219 23.8571 8.75 23.625 8.75H6.125C5.66087 8.75 5.21575 8.56563 4.88756 8.23744C4.55937 7.90925 4.375 7.46413 4.375 7ZM4.375 7C4.375 6.53587 4.55937 6.09075 4.88756 5.76256C5.21575 5.43437 5.66087 5.25 6.125 5.25H21" stroke="#7681AB" stroke-width="2" stroke-linecap="round" stroke-linejoin="round"/>
<path d="M19.6875 17.0625C20.4124 17.0625 21 16.4749 21 15.75C21 15.0251 20.4124 14.4375 19.6875 14.4375C18.9626 14.4375 18.375 15.0251 18.375 15.75C18.375 16.4749 18.9626 17.0625 19.6875 17.0625Z" fill="#7681AB"/>
</svg>
